<svg id="Calque_1" data-name="Calque 1" xmlns="http://www.w3.org/2000/svg" viewBox="0 0 865.82 158.7"><path d="M1303.52,569.92l-6.19,0q-11.1-3.68-11.06-9h1.23l9.86,5.43,5,0q20.1.15,28.78-44.47l0-3.57q.33-43.78-31.69-62.78l-9.88-1.86,0,5.36q30.84,11.84,30.51,55.62-9.46-16.61-20.9-18-9.84-5.89-9.73-21.52l0-3.57,3.75-5.34,1.23,1.8,2.47,0q-8.89-9-25.91-9.13L1246.1,473l0,3.58q7.42,0,13.52,12.61l0,1.78-9.83-9q-9.9,1.28-24.91,23.05l-6.22,5.32-6.19-.05-4.9-5.4h-1.24q-49.85,49.67-75.82,49.48l-12.37-.09q-69.58-.53-102.07-81.18l-5.93-34,2.47,0q3,19.68,22,39.48l6.16,3.62h1.24v-1.79q-5.87,0-9.8-12.58,6.55-7.11,11.19-7.07,8.65.08,20.86,21.6l8.64,3.64,2.47,0q11.21-8.85,11.29-21.36l.09-12.51-4.88-9,2.48,0,4.88,9-.12,16.08q-7.3,26.76-31.12,26.58-18.21-4.6-28.33-16.3h-1.24l0,3.58q21.17,23.38,39.41,23.52l5,0q5.57,0,28.54-12.3h1.24l1.18,7.16-2.5,3.55h1.24q12.48-14.2,12.63-35.64l1.25-1.78,5,0q3.7,1.38,3.61,14.33l0,3.57-1.3,8.93q9.9.08,16.26-24.9H1141l-.07,8.93-2.51,5.35,1.22,1.79h1.24Q1167,417,1188.38,417.16l3.71,0q22.19,10,22.05,28.76l0,3.57c-1.65,0-2.45-3-2.41-8.95q-11-19.76-19.64-19.81h-2.47q-13-.11-27.4,24.81-18,47.22-31.36,58.74-9.66,9.31-17.4,10.6l0,3.57h1.24q11.49-5.28,21.07-5.2,8.65.06,22.17,12.67l-2.5,3.56q-4.91-5.4-13.57-5.47l-49.5,3.21q-29.68-.22-54.24-25.42l-4.89-7.19v1.79q29.31,50.25,82.5,50.65,38.34.28,73.25-37,72.21-62.46,105.63-65.34l17.34-3.45q36.49.27,65.31,34.44,11.34,12.58,22.17,12.68,26,.18,26.23-33.76.06-9.39-8.53-17.94l-8.66-.06-8.75,12.44q3,11.64,6.09,12.56l3.71,0,6.2-1.74-3.75,5.34-1.22-1.8h-1.24l-1.25,1.78H1407q-8.61-5.43-8.54-16.15,5.4-17.84,15-17.76,16,8.61,15.88,26.93-6.12,33.9-22.52,33.79l-6.19,1.74q-8.65-.07-16-7.27h-1.24l3.5,28.62q-2.27,14.28-5,14.26l1.33-12.5v-1.79q.14-17.42-35.59-37.79l-4.86-12.55,2.57-12.49H1344l-18.52-3.71-24.74-.18q0,2.67,13.55,7.25,22.11,21.15,21.87,53.77-.27,36.63-25.17,57ZM1295,546.63q-4.32,0-6.09-12.56l6.22-5.31h1.24v1.78c-2.48,0-3.72,1.16-3.74,3.55l0,5.36,3.67,5.39c2.91-2.07,5-5.63,6.27-10.68l-1.19-7.16,2.45,3.6-.07,8.93Q1301.53,546.67,1295,546.63Zm8-73.22-3.68-5.38v1.78l2.45,3.59Zm-1.64,53.6h-1.24l-2.44-3.6h1.23Zm-19.89,14.15h-1.24v-1.79q.1-13.41,13.75-19.56l3.7,1.82v1.78Q1284.69,523.32,1281.47,541.16Zm4.8,19.7q-4.32-2.28-7.31-16.14l1.25-1.78h1.24q0,5.37,4.83,16.12Zm-82.21-90-3.7-1.81v-1.79l2.48,0,1.22,1.8h1.24q8.68-3.53,8.8-19.6h1.24l-.08,10.72Q1212.11,471,1204.06,470.89Zm.06-8.93-2.36-14.32H1203l6.13,7.2C1208.48,458.42,1206.81,460.78,1204.12,462Zm-3.75,5.33-2.44-3.59,0-5.36h1.23Zm-152.3,20.32,0-3.58-3.71,0,0,3.57ZM996.72,573q-4.94,0-7.31-14.35l-8.66-.07-2.42-7.16q12.06.08,15.13-39.21l-1.22-1.8h-2.47q-3.37,39.29-27.51,39.11Q981,530,981.2,497.83l16.23-19.53,8.56,12.57q7.74.06,9.67,30.45,6,20.14,13.44,23.33h1.23l0,3.58q-19.48-.15-25.77-28.79.09-10.73-2.39-10.74l-.07,8.94q1,33.95,13.36,34.05l-2.53,7.13-7.42-.06Zm-1.63-112.6q-5.25-2.28-7.36-9l0-3.58q.09-12.51,8.75-12.44t8.56,12.57l0,3.58Q1001.9,460.45,995.09,460.41ZM690,567.16q-34.53-13.23-34.12-69.95.15-20.11,21.36-44.52,14.89-6.15,14.91-8.83l-26-.19q-17.34,3.43-17.37,7L650,461.42q-2.25,12-33.62,30.13-7.5,10.67-7.55,17.82l0,5.36,1.17,8.94q-4.93-2.28-4.83-16.12.1-14.3,3.87-21.41l0-5.37q-9,7.08-16.13,7h-1.24q-24.71-4.2-24.58-21.62-1.86,0-3.59-16.11.12-16.1,17.5-24.89,13.56,7.23,13.44,23.33-6,10.68-10,10.65,7.49-8,7.54-16-1.49-8.06-11-14.38-9-.06-15,21.33,5.36,28.64,14.64,28.71,0,3.12,12.34,3.66,13.9.1,37.31-28.31L665,438.3l27.21.2q33.06,5.16,82.54,45.29,20,14.9,51.62,45.06,21.84,16.24,45.65,16.42l7.42.06q35.87.27,68.27-31.66Q953.33,503,956.42,503l0-3.57h-1.24q-23.07,26.62-55.86,26.39l-47-3.92q-11.13-.09-16.12,5.24l-2.47,0q10.32-16,22.38-15.92l21,5.52L852.59,493.3l-26.77-59.17Q817.55,422,800,417.85q-19.87,11.47-20,30.24h-1.23l0-5.36q7-28.55,25-28.41,16.69.12,38,43.17l9.71,25.09h1.24V480.8l-1.15-10.74,0-3.57L861.29,488l7.38,5.41v-1.78l-1.18-7.16q.15-19.67,3.86-19.63l2.47,0q4,0,8.45,28.65l7.35,9v-1.78l-1.19-5.37,3.73-3.55q22.17,14.46,28.35,14.51,19.82-3.44,32.25-12.27l13.74-17.77h-1.24q-10,10.65-14.92,10.61l-2.45-3.59-2.47,0,0,3.57,5,0q0,4-16.13,7-14.54-.11-25.89-12.7l0-3.58h1.24l9.83,9q6.19-1.74,24.92-24.83l7.43-1.73,7.39,5.41-.07,8.94c-2.47,0-5,2.34-7.47,7.09l1.22,1.8h1.24q17.13-17.76,28.78-44.47l0,1.79q-3.37,38.83-27.74,71.28-37.73,42.6-82,42.28-38.65-.29-73.93-39.87l-13.51-12.61q-4.68,5.34-8.7,5.3H775.8q-6.81,0-20.87-21.6L743.84,480l-3.72,0-6.23,7.1h-1.24q5.05-14.26,13.71-14.19l0-3.58q-25.25-14.49-30.82-14.52l-17.37,7L697,460l-1.25,1.78v1.79c4.94,0,7.41,1.24,7.39,3.63l-.05,7.14q-.13,17.43-23.69,24.85-5,6.66-5,10.68l-2.47,0q.3-41.1,30.1-55.17l2.47,0,0-3.58-2.48,0,0-1.78q-22.26-.17-37.4,39l-3.9,25q-.26,35.28,28.08,50.24,15.47.12,21.19-21.28V540.5h1.24l0,5.36q-.09,12.06-20,21.3Zm229.72-118-2.45-3.59v-1.78h2.47Zm-11.35,28.51q-3.09,0-4.84-14.33l0-5.36q.13-17.88,8.79-17.81l0,3.58q-3.71,0-6.23,7.1l-.1,12.51ZM792.21,462.48l1.33-12.5h1.24l-.08,10.72-1.26,1.77Zm-3.75,5.33q-9-.07-9.82-10.8l7.36,9,1.25-1.77,3.71,0Zm1.3-8.93-2.47,0-3.68-5.38c.87-4.77,2.95-7.13,6.24-7.11Zm-11.09-5.44-2.48,0,1.28-5.35h1.24Zm-67.43,85.28H710q0-5.81-8.51-19.72l2.47,0q7.37,8.54,7.29,17.92Zm-12.38,1.7h-1.24l1.3-8.93v-1.79l-2.43-5.38h1.24l4.89,7.19,0,3.57Zm-1.25,1.77-5,0-4.9-7.19.07-8.93,2.5-3.56,0,3.58-1.26,1.77v1.79q-.07,10.73,8.58,10.79Zm-7.28-19.71c0-2.68,2.1-4.45,6.22-5.31Q696.52,521.19,690.33,522.48Zm2.9-57.16v-1.79L687,472.42v1.78ZM582,459.13h-1.24l-2.45-3.59h1.24Z" transform="translate(-563.46 -414.31)"/></svg>