<svg id="Calque_1" data-name="Calque 1" xmlns="http://www.w3.org/2000/svg" viewBox="0 0 865.86 157.26"><path d="M688.07,421.1h6.19q11.13,3.58,11.13,8.94h-1.24l-9.89-5.37h-5q-20.1,0-28.45,44.68v3.57q0,43.8,32.16,62.55l9.89,1.79V531.9Q672,520.29,672,476.5q9.59,16.53,21,17.87,9.9,5.81,9.89,21.44v3.58l-3.71,5.36L698,523h-2.48q9,8.94,26,8.94l24.74-14.3V514q-7.43,0-13.61-12.51v-1.79l9.9,8.94q9.88-1.35,24.74-23.24l6.18-5.36h6.19l4.94,5.36h1.24q49.47-50,75.45-50h12.37q69.58,0,102.67,80.41l6.18,34H980q-3.09-19.65-22.27-39.32l-6.18-3.57H950.3v1.79q5.88,0,9.9,12.5-6.5,7.16-11.13,7.15-8.67,0-21-21.44l-8.66-3.58h-2.47q-11.14,9-11.14,21.45v12.51l5,8.93h-2.47l-5-8.93V521.17q7.11-26.8,30.92-26.8,18.24,4.47,28.45,16.08h1.24v-3.57q-21.35-23.22-39.58-23.23h-5q-5.57,0-28.45,12.51h-1.24L888.46,489l2.47-3.58h-1.24q-12.36,14.31-12.37,35.74L876.09,523h-5q-3.71-1.34-3.71-14.29v-3.58l1.24-8.93q-9.92,0-16.08,25h-1.24v-8.93l2.47-5.36-1.23-1.79h-1.24Q825.67,573,804.34,573h-3.71q-22.26-9.82-22.26-28.59v-3.58q2.48,0,2.47,8.94,11.13,19.66,19.79,19.66h2.48q13,0,27.21-25,17.63-47.35,30.92-59,9.59-9.37,17.32-10.72v-3.57h-1.24q-11.45,5.36-21,5.36-8.67,0-22.27-12.51l2.47-3.58q4.95,5.37,13.61,5.37l49.48-3.58q29.68,0,54.42,25l5,7.15v-1.79q-29.69-50-82.87-50-38.36,0-73,37.53-71.74,63-105.14,66.12l-17.32,3.58q-36.49,0-65.56-34-11.45-12.49-22.26-12.51-26,0-26,34,0,9.38,8.66,17.87h8.66l8.66-12.51q-3.11-11.61-6.19-12.51h-3.71l-6.18,1.79,3.71-5.36,1.24,1.78h1.23l1.24-1.78h1.24q8.65,5.36,8.65,16.08-5.25,17.88-14.84,17.87-16.08-8.47-16.08-26.81,5.88-33.94,22.27-33.95l6.18-1.79q8.65,0,16.08,7.15h1.24L605.2,476.5q2.16-14.29,4.94-14.3l-1.23,12.51v1.79q0,17.42,35.87,37.53l5,12.51-2.48,12.51h1.24L667,542.62h24.74q0-2.68-13.6-7.15-22.27-21-22.27-53.61,0-36.63,24.74-57.19Zm8.66,23.23q4.34,0,6.18,12.51l-6.18,5.36h-1.24v-1.79c2.48,0,3.71-1.18,3.71-3.57v-5.36l-3.71-5.36c-2.89,2.09-4.94,5.66-6.18,10.72l1.24,7.15-2.48-3.58v-8.93Q690.23,444.34,696.73,444.33Zm-7.42,73.27L693,523v-1.79l-2.47-3.57ZM690.55,464h1.23l2.48,3.57H693Zm19.79-14.3h1.23v1.79q0,13.39-13.6,19.66l-3.71-1.79v-1.79Q707.23,467.56,710.34,449.69Zm-5-19.65q4.32,2.23,7.42,16.08l-1.24,1.79h-1.23q0-5.37-5-16.09Zm82.87,89.35,3.71,1.78V523H789.5l-1.24-1.79H787q-8.67,3.58-8.66,19.66h-1.24V530.11Q780.22,519.39,788.26,519.39Zm0,8.93,2.48,14.3H789.5l-6.18-7.15Q784.23,530.12,788.26,528.32ZM792,523l2.48,3.58v5.36h-1.24Zm152.15-21.44v3.57h3.71v-3.57Zm50.71-85.78q4.95,0,7.42,14.3h8.66l2.48,7.14q-12.06,0-14.85,39.32l1.24,1.79h2.47q3.09-39.32,27.22-39.32-18.56,19.66-18.56,51.83l-16.08,19.65-8.66-12.51q-7.73,0-9.89-30.38-6.19-20.1-13.61-23.23h-1.23v-3.57q19.47,0,26,28.59,0,10.72,2.47,10.72v-8.93q-1.23-33.94-13.6-34l2.47-7.14h7.42Zm2.48,112.58c3.5,1.5,6,4.47,7.42,8.94v3.57q0,12.52-8.66,12.51t-8.66-12.51v-3.57Q990.5,528.32,997.31,528.32Zm304.28-109q34.64,13,34.64,69.7,0,20.1-21,44.67-14.85,6.27-14.84,8.94h26q17.33-3.57,17.32-7.15l-1.24-10.72q2.16-12.06,33.4-30.38,7.43-10.72,7.42-17.87v-5.36L1382,462.2q5,2.25,5,16.09,0,14.29-3.71,21.44v5.36q9-7.14,16.08-7.15h1.24q24.73,4,24.74,21.45,1.86,0,3.71,16.08,0,16.08-17.32,25-13.61-7.14-13.61-23.23,5.88-10.72,9.9-10.72-7.42,8-7.42,16.08,1.54,8,11.13,14.3,9,0,14.85-21.45-5.58-28.59-14.85-28.59,0-3.12-12.37-3.58-13.92,0-37.1,28.6L1327.57,548h-27.21q-33.09-4.9-82.88-44.68-20.1-14.73-52-44.67-22-16.08-45.77-16.09h-7.42q-35.88,0-68,32.17-5.57,10.73-8.66,10.72V489h1.24q22.88-26.81,55.66-26.81l47,3.58q11.13,0,16.08-5.37h2.47q-10.2,16.09-22.27,16.09l-21-5.36,24.75,23.23,27.21,59q8.34,12.06,26,16.09,19.79-11.62,19.8-30.38h1.23v5.36Q1207,573,1189,573q-16.69,0-38.34-42.89l-9.9-25h-1.23v1.79l1.23,10.72v3.57l-9.89-21.44-7.43-5.36v1.79l1.24,7.14q0,19.66-3.71,19.66h-2.47q-4,0-8.66-28.59l-7.42-8.94v1.79l1.23,5.36-3.71,3.58q-22.26-14.3-28.45-14.3-19.79,3.58-32.16,12.51l-13.6,17.87H1027q9.9-10.73,14.85-10.72l2.47,3.57h2.47v-3.57h-4.94q0-4,16.08-7.15,14.52,0,26,12.51v3.57h-1.23l-9.9-8.93q-6.19,1.78-24.74,25l-7.42,1.78-7.42-5.36V514q3.71,0,7.42-7.15l-1.24-1.79h-1.23q-17,17.88-28.45,44.68V548q3.08-38.86,27.21-71.48,37.41-42.88,81.64-42.89,38.65,0,74.21,39.31l13.61,12.51q4.64-5.35,8.66-5.36h1.24q6.8,0,21,21.45l11.13,5.36h3.72l6.18-7.15h1.24q-4.95,14.31-13.61,14.3v3.57q25.35,14.31,30.92,14.3l17.32-7.15,1.24,1.79,1.24-1.79V523c-5,0-7.42-1.18-7.42-3.57v-7.15q0-17.43,23.5-25,4.93-6.71,4.94-10.72h2.48q0,41.1-29.69,55.4H1288v3.57h2.47v1.79q22.26,0,37.11-39.32l3.71-25q0-35.28-28.45-50-15.46,0-21,21.44v1.79h-1.23v-5.36q0-12.06,19.79-21.45ZM1072.76,539.05l2.47,3.57v1.79h-2.47Zm11.13-28.6q3.09,0,4.95,14.3v5.36q0,17.88-8.66,17.87v-3.57c2.48,0,4.53-2.38,6.19-7.15V524.75Zm116.27,14.3-1.23,12.51h-1.24V526.54l1.24-1.79Zm3.72-5.36q9,0,9.89,10.72l-7.42-8.94-1.24,1.79h-3.71Zm-1.24,8.93h2.47l3.71,5.36c-.82,4.77-2.89,7.15-6.18,7.15Zm11.13,5.36h2.48l-1.24,5.37h-1.24Zm66.8-85.77h1.23q0,5.8,8.66,19.65H1288q-7.42-8.47-7.42-17.87Zm12.37-1.79h1.23l-1.23,8.93v1.79l2.47,5.36h-1.24l-4.94-7.15v-3.57Zm1.23-1.79h4.95l5,7.15v8.93l-2.48,3.58v-3.58l1.24-1.78v-1.79q0-10.72-8.66-10.72Zm7.42,19.66q0,4-6.18,5.36Q1295.41,465.33,1301.59,464Zm-2.47,57.18V523l6.18-8.93v-1.79Zm111.32,5.37h1.24l2.47,3.57h-1.23Z" transform="translate(-563.14 -415.74)"/></svg>